<?xml version="1.0" encoding="UTF-8" standalone="no"?>
<!-- Created with Inkscape (http://www.inkscape.org/) -->

<svg
   version="1.1"
   id="svg136"
   width="327.67999"
   height="327.67999"
   viewBox="0 0 327.67999 327.67999"
   sodipodi:docname="explorica.svg"
   inkscape:version="1.2.2 (b0a8486541, 2022-12-01)"
   inkscape:export-filename="explorica1_small.png"
   inkscape:export-xdpi="75"
   inkscape:export-ydpi="75"
   xmlns:inkscape="http://www.inkscape.org/namespaces/inkscape"
   xmlns:sodipodi="http://sodipodi.sourceforge.net/DTD/sodipodi-0.dtd"
   xmlns="http://www.w3.org/2000/svg"
   xmlns:svg="http://www.w3.org/2000/svg">
  <defs
     id="defs140" />
  <sodipodi:namedview
     id="namedview138"
     pagecolor="#ffffff"
     bordercolor="#000000"
     borderopacity="0.25"
     inkscape:showpageshadow="2"
     inkscape:pageopacity="0.0"
     inkscape:pagecheckerboard="0"
     inkscape:deskcolor="#d1d1d1"
     showgrid="false"
     inkscape:zoom="1"
     inkscape:cx="131.5"
     inkscape:cy="136"
     inkscape:window-width="1854"
     inkscape:window-height="1014"
     inkscape:window-x="66"
     inkscape:window-y="29"
     inkscape:window-maximized="1"
     inkscape:current-layer="svg136"
     showguides="true" />
  <g
     inkscape:groupmode="layer"
     id="layer1"
     inkscape:label="mylogo"
     style="opacity:1">
    <rect
       style="opacity:1;fill:#15b3db;fill-opacity:1"
       id="rect1847"
       width="17.768095"
       height="67.92524"
       x="75.616272"
       y="68.893799" />
    <rect
       style="fill:#15b3db;fill-opacity:1;stroke-width:1.25408"
       id="rect1847-7"
       width="17.768095"
       height="106.82769"
       x="-47.472256"
       y="107.16972"
       transform="rotate(-90)" />
    <rect
       style="opacity:1;fill:#15b3db;fill-opacity:1"
       id="rect1882"
       width="17.768095"
       height="67.92524"
       x="75.616272"
       y="193.11551" />
    <rect
       style="fill:#15b3db;fill-opacity:1;stroke-width:1.25408"
       id="rect1958"
       width="17.768095"
       height="106.82769"
       x="-297.32098"
       y="107.16972"
       transform="rotate(-90)" />
    <rect
       style="fill:#15b3db;fill-opacity:1;stroke-width:1.00123"
       id="rect1960"
       width="17.768095"
       height="68.093117"
       x="-171.67903"
       y="107.16972"
       transform="rotate(-90)" />
    <path
       id="path739"
       style="opacity:1;fill:#15b3db;fill-opacity:1"
       d="M 84.550781 5.2890625 A 33.073513 33.073513 0 0 0 51.478516 38.363281 A 33.073513 33.073513 0 0 0 84.550781 71.435547 A 33.073513 33.073513 0 0 0 117.625 38.363281 A 33.073513 33.073513 0 0 0 84.550781 5.2890625 z M 84.634766 21.855469 A 16.805367 16.805367 0 0 1 101.43945 38.662109 A 16.805367 16.805367 0 0 1 84.634766 55.466797 A 16.805367 16.805367 0 0 1 67.830078 38.662109 A 16.805367 16.805367 0 0 1 84.634766 21.855469 z " />
    <path
       id="path1516"
       style="opacity:1;fill:#15b3db;fill-opacity:1"
       d="M 243.28169,5.2890625 A 33.073513,33.073513 0 0 0 210.20943,38.363281 33.073513,33.073513 0 0 0 243.28169,71.435547 33.073513,33.073513 0 0 0 276.35591,38.363281 33.073513,33.073513 0 0 0 243.28169,5.2890625 Z m 0.084,16.5664065 a 16.805367,16.805367 0 0 1 16.80468,16.80664 16.805367,16.805367 0 0 1 -16.80468,16.804688 16.805367,16.805367 0 0 1 -16.80469,-16.804688 16.805367,16.805367 0 0 1 16.80469,-16.80664 z" />
    <path
       id="path1518"
       style="opacity:1;fill:#15b3db;fill-opacity:1"
       d="M 84.550781,130.0826 A 33.073513,33.073513 0 0 0 51.478516,163.15681 33.073513,33.073513 0 0 0 84.550781,196.22908 33.073513,33.073513 0 0 0 117.625,163.15681 33.073513,33.073513 0 0 0 84.550781,130.0826 Z m 0.08398,16.5664 A 16.805367,16.805367 0 0 1 101.43945,163.45564 16.805367,16.805367 0 0 1 84.634766,180.26033 16.805367,16.805367 0 0 1 67.830078,163.45564 16.805367,16.805367 0 0 1 84.634766,146.649 Z" />
    <path
       id="path1520"
       style="opacity:1;fill:#15b3db;fill-opacity:1"
       d="M 84.550781,255.5993 A 33.073513,33.073513 0 0 0 51.478516,288.67351 33.073513,33.073513 0 0 0 84.550781,321.74578 33.073513,33.073513 0 0 0 117.625,288.67351 33.073513,33.073513 0 0 0 84.550781,255.5993 Z m 0.08398,16.5664 A 16.805367,16.805367 0 0 1 101.43945,288.97234 16.805367,16.805367 0 0 1 84.634766,305.77703 16.805367,16.805367 0 0 1 67.830078,288.97234 16.805367,16.805367 0 0 1 84.634766,272.1657 Z" />
    <path
       id="path1522"
       style="opacity:1;fill:#15b3db;fill-opacity:1"
       d="m 243.29389,255.5993 a 33.073513,33.073513 0 0 0 -33.07226,33.07421 33.073513,33.073513 0 0 0 33.07226,33.07227 33.073513,33.073513 0 0 0 33.07422,-33.07227 33.073513,33.073513 0 0 0 -33.07422,-33.07421 z m 0.084,16.5664 a 16.805367,16.805367 0 0 1 16.80469,16.80664 16.805367,16.805367 0 0 1 -16.80468,16.80469 16.805367,16.805367 0 0 1 -16.80469,-16.80469 16.805367,16.805367 0 0 1 16.80469,-16.80664 z" />
    <path
       id="path1524"
       style="opacity:1;fill:#15b3db;fill-opacity:1"
       d="m 199.71752,130.0826 a 33.073513,33.073513 0 0 0 -33.07227,33.07421 33.073513,33.073513 0 0 0 33.07227,33.07227 33.073513,33.073513 0 0 0 33.07422,-33.07227 33.073513,33.073513 0 0 0 -33.07422,-33.07421 z m 0.084,16.5664 a 16.805367,16.805367 0 0 1 16.80469,16.80664 16.805367,16.805367 0 0 1 -16.80469,16.80469 16.805367,16.805367 0 0 1 -16.80468,-16.80469 16.805367,16.805367 0 0 1 16.80468,-16.80664 z" />
  </g>
</svg>
